<svg id="Layer_1" data-name="Layer 1" xmlns="http://www.w3.org/2000/svg" viewBox="0 0 1133.86 742.85"><defs><style>.cls-1{fill:#1d1d1b;}.cls-2,.cls-3,.cls-5{fill:#2e193f;}.cls-3{stroke:#2e193f;stroke-miterlimit:10;stroke-width:1.55px;}.cls-4{opacity:0.2;}.cls-5{opacity:0.5;}</style></defs><title>MyTimeToHeal-master-logo</title><path class="cls-1" d="M202.11,579h13q7.48,0,11.46,3.35a11.33,11.33,0,0,1,4,9.14,11.56,11.56,0,0,1-4,9.28q-4,3.42-11.77,3.42h-9v22.11h-3.66Zm3.66,3v19.1h8.8q5.93,0,9-2.51a9.58,9.58,0,0,0,.07-14q-3-2.57-8.63-2.57Z"/><path class="cls-1" d="M252.09,597.21v3.59q-4.74-3.18-8.53-3.18a7.43,7.43,0,0,0-4.74,1.52,4.61,4.61,0,0,0-1.93,3.75,4.33,4.33,0,0,0,1.17,2.92q1.17,1.33,6.47,3.38t6.92,4.25a8.07,8.07,0,0,1,1.63,4.91,7.71,7.71,0,0,1-2.95,6.11,10.9,10.9,0,0,1-7.28,2.49,17.73,17.73,0,0,1-9.35-2.84v-3.25a21.91,21.91,0,0,0,9.79,2.84,7.17,7.17,0,0,0,4.72-1.52,4.82,4.82,0,0,0,1.85-3.89,4.45,4.45,0,0,0-1.2-3q-1.2-1.37-6.5-3.47t-6.87-4.15a7.29,7.29,0,0,1-1.57-4.55,7.66,7.66,0,0,1,2.93-6,10.64,10.64,0,0,1,7.13-2.49A16.69,16.69,0,0,1,252.09,597.21Z"/><path class="cls-1" d="M283.18,595.18l-23.32,47.1h-3.4l10.89-22-13.13-25.1h3.48L269,616.93l10.77-21.75Z"/><path class="cls-1" d="M307.63,596.09v3.69a20.39,20.39,0,0,0-8.09-2,10.89,10.89,0,0,0-8.48,3.62,13.52,13.52,0,0,0-3.27,9.41q0,5.89,3.27,9.36a11.45,11.45,0,0,0,8.75,3.47,22.25,22.25,0,0,0,8.4-1.79v3.45a27,27,0,0,1-8.67,1.59,14.73,14.73,0,0,1-11.06-4.33q-4.22-4.33-4.22-11.38,0-7.35,4.25-12a14,14,0,0,1,10.85-4.66A26.88,26.88,0,0,1,307.63,596.09Z"/><path class="cls-1" d="M316.5,579V600.6h.14q3.89-6,10.26-6a11,11,0,0,1,8.43,3.39q3.15,3.39,3.15,9.31v19.06h-3.32V608.59q0-10.77-8.47-10.77-6.06,0-10.19,6.67v21.84h-3.32V579Z"/><path class="cls-1" d="M360.28,594.57a15.12,15.12,0,0,1,11.29,4.64,17,17,0,0,1,0,23.11,16.15,16.15,0,0,1-22.62,0,16.94,16.94,0,0,1,0-23.11A15.23,15.23,0,0,1,360.28,594.57Zm0,29.12a11.65,11.65,0,0,0,8.77-3.67,13.85,13.85,0,0,0,0-18.47,11.59,11.59,0,0,0-8.75-3.73,11.72,11.72,0,0,0-8.82,3.69,13.87,13.87,0,0,0,0,18.51A11.74,11.74,0,0,0,360.28,623.69Z"/><path class="cls-1" d="M388.09,584.85v10.33h8.74v2.71h-8.74v18.52q0,4.47.73,5.88t3.91,1.41a13.77,13.77,0,0,0,5.69-1.52v3.18a14.68,14.68,0,0,1-6.43,1.59,7.66,7.66,0,0,1-5.15-1.76,6.06,6.06,0,0,1-2.07-4.88V597.89h-8.4v-2.71h8.4v-7.42l2.27-2.91Z"/><path class="cls-1" d="M404.85,579V600.6H405q3.89-6,10.26-6a11,11,0,0,1,8.43,3.39q3.15,3.39,3.15,9.31v19.06h-3.32V608.59q0-10.77-8.47-10.77-6.06,0-10.19,6.67v21.84h-3.32V579Z"/><path class="cls-1" d="M460.69,609.6H436.14a13.17,13.17,0,0,0-.1,1.63,11.86,11.86,0,0,0,3.73,8.84,12.2,12.2,0,0,0,8.8,3.62q5.93,0,11.58-4.64v3.76a19.13,19.13,0,0,1-12,4.13A14.65,14.65,0,0,1,437,622.27a16.64,16.64,0,0,1-4.4-11.89,16.24,16.24,0,0,1,4.06-11.33,13.88,13.88,0,0,1,20-.44Q460.69,602.66,460.69,609.6Zm-24.11-2.67h20.18q-1.76-9.11-9.85-9.11a9.86,9.86,0,0,0-6.62,2.39A11.69,11.69,0,0,0,436.58,606.93Z"/><path class="cls-1" d="M487.55,598.26l-1.93,3.12q-3.89-3.56-6.26-3.56-4.67,0-10,8.94v19.57H466V595.18h3.32v8.19h.14q5.59-8.8,10.9-8.8Q483.45,594.57,487.55,598.26Z"/><path class="cls-1" d="M514.3,620.91v2.78q-4.3,3.25-6.3,3.25a1.68,1.68,0,0,1-1.59-.76,8.62,8.62,0,0,1-.64-3.1q-4.91,3.86-9.75,3.86a8.35,8.35,0,0,1-6-2.3,7.4,7.4,0,0,1-2.44-5.59,9,9,0,0,1,4.71-8q4.71-2.93,13.44-3.37v-4q0-6.37-6.91-6.37-4.4,0-9.52,4v-3.42a19,19,0,0,1,10.06-3.32,11.21,11.21,0,0,1,7,2.08,7.13,7.13,0,0,1,2.74,6v19.4q0,1.59.74,1.59Q510.81,623.69,514.3,620.91Zm-8.53-.75v-9.72a19.18,19.18,0,0,0-10.62,2.25q-4.22,2.49-4.22,6.35a4.61,4.61,0,0,0,1.76,3.66,6.58,6.58,0,0,0,4.4,1.49Q501.36,624.2,505.77,620.17Z"/><path class="cls-1" d="M521,595.18v1.76a20.7,20.7,0,0,1,9.38-2.37,14.58,14.58,0,0,1,11,4.57,17.23,17.23,0,0,1-.14,23.08,14.62,14.62,0,0,1-11,4.72A20.83,20.83,0,0,1,521,624.6v17.68h-3.32v-47.1Zm0,4.94v21.23a17.61,17.61,0,0,0,8.6,2.34,12.1,12.1,0,0,0,9-3.52,12.63,12.63,0,0,0,3.45-9.24,12.83,12.83,0,0,0-3.66-9.4,12.44,12.44,0,0,0-9.24-3.71A17,17,0,0,0,521,600.12Z"/><path class="cls-1" d="M575.25,595.18l-23.32,47.1h-3.4l10.89-22-13.13-25.1h3.48l11.3,21.75,10.77-21.75Z"/><path class="cls-1" d="M671.94,582.38v4a35.78,35.78,0,0,0-16.86-4.57,19.88,19.88,0,0,0-14.73,6,20.43,20.43,0,0,0-5.93,15,20,20,0,0,0,6,14.93q6,5.86,15.2,5.86,7.72,0,16.83-4.84v3.79a35.63,35.63,0,0,1-16.76,4.44q-10.8,0-18-6.92a24.24,24.24,0,0,1,.15-34.62,24.55,24.55,0,0,1,17.51-7A39.82,39.82,0,0,1,671.94,582.38Z"/><path class="cls-1" d="M691.41,594.57a15.12,15.12,0,0,1,11.29,4.64,17,17,0,0,1,0,23.11,16.15,16.15,0,0,1-22.62,0,16.94,16.94,0,0,1,0-23.11A15.23,15.23,0,0,1,691.41,594.57Zm0,29.12a11.65,11.65,0,0,0,8.77-3.67,13.85,13.85,0,0,0,0-18.47,11.59,11.59,0,0,0-8.75-3.73,11.72,11.72,0,0,0-8.82,3.69,13.87,13.87,0,0,0,0,18.51A11.74,11.74,0,0,0,691.41,623.69Z"/><path class="cls-1" d="M735.09,626.33v-5.15H735a14.63,14.63,0,0,1-4.45,4.44,11.49,11.49,0,0,1-5.81,1.32,11.3,11.3,0,0,1-8.3-3.25q-3.28-3.25-3.28-9.21v-19.3h3.32v19.23a9.43,9.43,0,0,0,2.37,6.81,8.15,8.15,0,0,0,6.16,2.47,9.92,9.92,0,0,0,5.54-1.49,16.58,16.58,0,0,0,4.59-5.15V595.18h3.32v31.15Z"/><path class="cls-1" d="M749,595.18v5.42h.14q3.89-6,10.26-6a11,11,0,0,1,8.43,3.39q3.15,3.39,3.15,9.38v19h-3.32V608.59q0-10.77-8.47-10.77-6.2,0-10.19,6.67v21.84h-3.32V595.18Z"/><path class="cls-1" d="M795.47,597.21v3.59q-4.74-3.18-8.53-3.18a7.43,7.43,0,0,0-4.74,1.52,4.61,4.61,0,0,0-1.93,3.75,4.33,4.33,0,0,0,1.17,2.92q1.17,1.33,6.47,3.38t6.92,4.25a8.07,8.07,0,0,1,1.63,4.91,7.71,7.71,0,0,1-2.95,6.11,10.9,10.9,0,0,1-7.28,2.49,17.73,17.73,0,0,1-9.35-2.84v-3.25a21.91,21.91,0,0,0,9.79,2.84,7.17,7.17,0,0,0,4.72-1.52,4.82,4.82,0,0,0,1.85-3.89,4.45,4.45,0,0,0-1.2-3q-1.2-1.37-6.5-3.47t-6.87-4.15a7.29,7.29,0,0,1-1.57-4.55,7.66,7.66,0,0,1,2.93-6,10.64,10.64,0,0,1,7.13-2.49A16.69,16.69,0,0,1,795.47,597.21Z"/><path class="cls-1" d="M828.05,609.6H803.5a13.17,13.17,0,0,0-.1,1.63,11.86,11.86,0,0,0,3.73,8.84,12.2,12.2,0,0,0,8.8,3.62q5.93,0,11.58-4.64v3.76a19.13,19.13,0,0,1-12,4.13,14.65,14.65,0,0,1-11.14-4.67,16.64,16.64,0,0,1-4.4-11.89A16.24,16.24,0,0,1,804,599.05a13.88,13.88,0,0,1,20-.44Q828.05,602.66,828.05,609.6Zm-24.11-2.67h20.18q-1.76-9.11-9.85-9.11a9.86,9.86,0,0,0-6.62,2.39A11.69,11.69,0,0,0,803.94,606.93Z"/><path class="cls-1" d="M837.23,579v47.31h-3.35V579Z"/><path class="cls-1" d="M848.88,579v47.31h-3.35V579Z"/><path class="cls-1" d="M860.53,579v5.69h-3.35V579Zm0,16.15v31.15h-3.35V595.18Z"/><path class="cls-1" d="M871.6,595.18v5.42h.14q3.89-6,10.26-6a11,11,0,0,1,8.43,3.39q3.15,3.39,3.15,9.38v19h-3.32V608.59q0-10.77-8.47-10.77-6.2,0-10.19,6.67v21.84h-3.32V595.18Z"/><path class="cls-1" d="M925.51,595.18v2.71h-7.08q4.3,3.93,4.3,8.26a10.16,10.16,0,0,1-1.68,6.16,10,10,0,0,1-4,3.3,40.65,40.65,0,0,1-6.18,2q-3.86,1-4.84,1.88a2.67,2.67,0,0,0-1,2,2.47,2.47,0,0,0,1.27,2.17q1.27.81,7.89,1.19t8.92,2.54a8.06,8.06,0,0,1-1.39,12.41q-3.69,2.42-10.26,2.42T901.4,640a6.92,6.92,0,0,1-3.56-6q0-6.1,9.08-7.55v-.13q-5-1.19-5-4.44t6.23-5.08v-.14a11.58,11.58,0,0,1-6.21-4,10.77,10.77,0,0,1,1.3-14.29q3.42-3.1,9.82-3.1ZM911.7,639.5a15.34,15.34,0,0,0,7.7-1.66,5,5,0,0,0,2.86-4.37q0-5.48-9.92-5.49Q901,628,901,633.75T911.7,639.5Zm-.47-25a8.38,8.38,0,0,0,8.33-8.33,7.91,7.91,0,0,0-2.46-5.84,8.16,8.16,0,0,0-5.94-2.42,7.92,7.92,0,0,0-5.82,2.37,7.84,7.84,0,0,0-2.37,5.76,8.28,8.28,0,0,0,2.4,6A7.86,7.86,0,0,0,911.22,614.55Z"/><path class="cls-2" d="M249,468.34l34.73-42.46h7.15v91.42h-7.13V436.23L249,479l-34.91-42.73v81.08H207V425.89h7.07Z"/><path class="cls-2" d="M352.7,457.1l-45.06,91h-6.57l21.05-42.52-25.37-48.5h6.73l21.84,42,20.81-42Z"/><path class="cls-2" d="M411.71,425.89v5.89H377.42v85.53h-7.13V431.77H336v-5.89Z"/><path class="cls-2" d="M425.46,425.89v11H419v-11Zm0,31.22v60.21H419V457.1Z"/><path class="cls-2" d="M443.92,457.1v10.6h.26q7.33-11.78,19.17-11.78,13.81,0,19.44,14.46,8.51-14.46,20.94-14.46a19,19,0,0,1,15.12,6.67q5.76,6.67,5.76,17.73v37h-6.41V483.15q0-9.75-4.12-15.35a13.55,13.55,0,0,0-11.58-5.59,14.93,14.93,0,0,0-9.69,3.34q-4.12,3.34-8.51,10.73v41h-6.48V483q0-10-4.29-15.41a13.91,13.91,0,0,0-11.48-5.4q-10.47,0-18.13,12.89v42.21h-6.41V457.1Z"/><path class="cls-2" d="M587,485H539.6a25.32,25.32,0,0,0-.2,3.14,22.92,22.92,0,0,0,7.2,17.08,23.58,23.58,0,0,0,17,7q11.45,0,22.38-9v7.26a37,37,0,0,1-23.17,8q-13,0-21.53-9t-8.51-23q0-13.22,7.85-21.89a26.82,26.82,0,0,1,38.68-.85Q587,471.56,587,485Zm-46.59-5.17h39q-3.4-17.6-19-17.6a19.05,19.05,0,0,0-12.79,4.61Q542.22,471.43,540.45,479.81Z"/><path class="cls-2" d="M648.81,425.89v5.89H614.52v85.53h-7.13V431.77H573.09v-5.89Z"/><path class="cls-2" d="M656.23,455.92a29.22,29.22,0,0,1,21.82,9q8.74,9,8.74,22.38t-8.74,22.28a31.21,31.21,0,0,1-43.71,0q-8.8-8.93-8.8-22.28t8.8-22.38A29.43,29.43,0,0,1,656.23,455.92Zm0,56.28a22.52,22.52,0,0,0,16.95-7.1Q680,498,680,487.27a24.94,24.94,0,0,0-6.84-17.87,22.4,22.4,0,0,0-16.92-7.2,22.65,22.65,0,0,0-17,7.13q-6.84,7.13-6.84,17.93t6.84,17.83A22.69,22.69,0,0,0,656.23,512.2Z"/><path class="cls-2" d="M778.05,425.89v91.42h-7.13V474h-61v43.32h-7.07V425.89h7.07V468.1h61V425.89Z"/><path class="cls-2" d="M842.91,485H795.47a25.32,25.32,0,0,0-.2,3.14,22.92,22.92,0,0,0,7.2,17.08,23.58,23.58,0,0,0,17,7q11.45,0,22.38-9v7.26a37,37,0,0,1-23.17,8q-13,0-21.53-9t-8.51-23q0-13.22,7.85-21.89a26.82,26.82,0,0,1,38.68-.85Q842.91,471.56,842.91,485Zm-46.59-5.17h39q-3.4-17.6-19-17.6a19.05,19.05,0,0,0-12.79,4.61Q798.08,471.43,796.32,479.81Z"/><path class="cls-2" d="M906.58,506.84v5.37q-8.31,6.28-12.17,6.28a3.24,3.24,0,0,1-3.08-1.47q-.85-1.47-1.24-6-9.49,7.46-18.85,7.46A16.14,16.14,0,0,1,859.73,514a14.3,14.3,0,0,1-4.71-10.8q0-9.82,9.1-15.48t26-6.51v-7.66q0-12.3-13.35-12.3-8.51,0-18.39,7.66v-6.61q10.21-6.41,19.44-6.41,8.18,0,13.48,4t5.3,11.68v37.5q0,3.08,1.44,3.08Q899.84,512.2,906.58,506.84Zm-16.49-1.44V486.61q-12.37-.46-20.52,4.35t-8.15,12.27a8.92,8.92,0,0,0,3.4,7.07,12.71,12.71,0,0,0,8.51,2.88Q881.58,513.18,890.09,505.4Z"/><path class="cls-2" d="M920.52,425.89v91.42H914V425.89Z"/><line class="cls-3" x1="196.69" y1="547.54" x2="922.22" y2="547.54"/><line class="cls-3" x1="603.28" y1="626.21" x2="603.28" y2="548.27"/><g class="cls-4"><path class="cls-2" d="M569.91,87.12c-4.67,9.29-1.58,48.71-1.58,48.71A31.07,31.07,0,0,0,555,115.16C567.11,128.27,566.68,137,566.68,137c-4.78-11.29-20.49-18.49-20.49-18.49-11.63-3.65-9.2-17.1-9.2-17.1a6,6,0,0,0-2.43-4.6,42.7,42.7,0,0,1,22.92,7.29c-.69-1.82-1-6.86-1-6.86-.52-8.42,5.3-15.11,5.3-15.11,6.34-6.69,8.18-12.94,8.18-12.94M552.24,146.3c6.77,10.37,3.59,29.3,3.59,29.3,18-44.49-10-50.95-10-50.95-5.15-2.14-6.42-5.23-6.42-5.23-7.93,7.45,3,21.64,3,21.64,16.41,22.12,6.9,46.61,6.9,46.61C560.66,169.6,552.24,146.3,552.24,146.3ZM482,288.09c-2.59-28.33,28.56-59,28.56-59,59.46-64.47,15.18-102.16,15.18-102.16-16.27-12.18-25.93,4.36-25.93,4.36-5.65,9.32,2.65,17.7,2.65,17.7,16,10.58,20.35-4.7,20.35-4.7-4.7,5.58-9.66.41-9.66.41-4.36-4.83,2.62-9.73,2.62-9.73,10.61-5.79,16.64,7,16.64,7,16.88,32.8-15,62.7-15,62.7-22.91,22.67-37.14,52.09-37.14,52.09-22.43,57.63,25.8,76.68,25.8,76.68A53.65,53.65,0,0,1,482,288.09Zm20.28,34.51c-6.1-5.35-9.7-14.31-9.7-14.31-9.45-25.5,5.72-40.18,5.72-40.18,28.36-27.86,52.25-6.47,52.25-6.47,16.54,12.56,9.21,32.22,9.21,32.22-7.71,16.42-23.51,16.54-23.51,16.54-18.16.12-24.13-16.42-24.13-16.42,3.23,33.09,31.72,25.75,31.72,25.75,24.13-4.11,24.63-30.6,24.63-30.6-3.61-44.28-47-36.57-47-36.57-17.74,2.49-25.13,12.07-25.13,12.07,4.57-9.72,11.73-20.61,22.35-32.73,0,0,41.3-43.07,25.08-81.27,0,0,11.07,21-11.41,55.77-7.09,10.95-33.44,37.78-41.19,54.55a67.67,67.67,0,0,0-6.48,22.56S479,323.3,518,333.1C510.08,330.28,502.32,322.6,502.32,322.6Zm13-151-5.7,31.69c.28-3.2,10.15-14,10.15-14,8.34-8.06,2.92-20,2.92-20a35.61,35.61,0,0,1-4.31-11.4,23.79,23.79,0,0,1-9.59,9c-8.28,5.27-5.56,18.62-5.56,18.62a38.42,38.42,0,0,1,2.36,17.79ZM493.5,199.82c4.52,12.33-1.36,32.12-1.36,32.12,2.94-5.66,6.74-20.22,6.74-20.22,3.51-14.91,0-23.44,0-23.44-4.45-12.19-11.9-15.63-11.9-15.63,1.72,3.73-2.57,10-2.57,10-5.22,6.81,3.79,20.93,3.79,20.93,4.8,9.89,3.51,22.08,3.51,22.08C495.44,218.38,493.5,199.82,493.5,199.82Zm-12.33,50a43.55,43.55,0,0,0,7.67-29.47S486,201,470.7,207.2c0,0-9.89,4.09-6.67,14.2,0,0,5.81,12.19,15.34,4.16,0,0-3.87,1.72-6.38-2.72,0,0-1.72-4.88,2.87-5.81,0,0,6.81-2.51,9,7.38C484.83,224.41,486.62,239.32,481.17,249.86Zm-11.79-6.19c-6.22,3.27-9,10.17-9,10.17-7.06,18.09,7.93,40.4,7.93,40.4-6.29-19-.86-30-.86-30-4,27.83,8.83,40.58,8.83,40.58A58.9,58.9,0,0,1,471,277.18c-.34-7.84,6-20.25,6-20.25,7.75-14.73-.82-20.5-.82-20.5C476.62,239,469.38,243.67,469.38,243.67Zm84.4,42.74c-2.77,20.74-24.6,18.43-24.6,18.43,24.11,6.37,28-16.86,28-16.86,1.93-29.68-27.37-29.66-27.37-29.66C557.18,263,553.78,286.4,553.78,286.4Zm-24.6-20.14c-27.61-5.06-34.85,13.5-34.85,13.5,20.47-19.12,32.92-5.18,32.92-5.18,12.18,10.25,6.63,26,6.63,26,16.28-3.5,13.5-21.46,13.5-21.46-2.89-12.06-12.18-15.67-12.18-15.67-18.09-8.44-32.07,5.06-32.07,5.06C518.09,259.88,529.18,266.27,529.18,266.27Zm-29.42,25.44s1.31,5.79,8.25,3c0,0,9-4.67,2.67-13.44,0,0-5.17-5.86-11.43-1.61,0,0-13,9.51-4.31,26.26,0,0-1.44-7.4.57-13.91,0,0,3.56-9.6,8.67-5.75,0,0,2.7,2.47.57,4.82C504.77,291.11,503.68,292.71,499.76,291.71ZM551.4,319s-.82.19-3.89,1.16c0,0-13.52,4.59-25.38-1.92,0,0-11.69-7.35-14.95-7.18,0,0-4.84-.84-6.76,2.84,0,0,2.25.5,2.51,2.09,0,0,4.18,11.11,12.19,13.78,0,0,11.27,4.76,28.1-5.09,0,0-14.91,2.76-21.34-1.09,0,0,10.94,2.09,17.7.58,0,0,8.19-1.71,11.82-5.16M535.83,333.1s-7.56,3.34-13,3.61c0,0-7.48,1-12.09-1.16,0,0-8.45-3-13.51-.54,0,0-8.27,2.14-11.91.45,0,0-6.85-2.93-7.38-5.07,0,0,7.2,17.42,27.74,17.51,0,0,12.27-.53,22.49-6.22,0,0,7.73-4.89,9.16-6.31,0,0,8.45-8.45,9.16-8.71,0,0-6.76,4.18-9.69,7.2,0,0-5.14,4.09-7.63,4.53C529.18,338.39,534.68,335.35,535.83,333.1Zm18.85,1.48c8.36-8.09,11.82-23.63,11.82-23.63A53.48,53.48,0,0,1,544.1,336c-9.25,5.16-7.47,15.65-7.47,15.65a8.73,8.73,0,0,1-2.31,6.85c37.78-10.13,35.2-52.54,35.2-52.54C563.57,331.81,554.68,334.57,554.68,334.57Zm6.16,8.42s-4.34,7.85-7.91,10.21c0,0-8,5.65-8.74,12.8,0,0-.87,3.4-2.9,3.89,0,0-.24,1.68,10.85-2.22,0,0,10.35-5.3,9.58-24.19,0,0-1.76,13.29-11.14,19.38C550.58,362.86,558.65,351.66,560.84,343Zm-10,38a2.75,2.75,0,0,1-2.91-3.24c2-4.56,4.72-.66,4.72-.66-.67-6.91-7.8-3.62-7.8-3.62-3.29,1.26-3.29,5.54-3.29,5.54.93,6.48,6.59,6.75,6.59,6.75,12.63-1.37,13-18.89,13-18.89C556.61,382,550.8,381,550.8,381Zm19.12-15.22c.14-.2-3.76-12.75-.7-35.66,0,0-3.25,12.56-4.62,15.09,0,0-5.47,13.53-1.5,22.64,0,0,5.9,9.69,6.82,16.66M557.25,185.39a28.3,28.3,0,0,0-8.06,5.46c-3,2.45-8.8,18.34-8.8,18.34-3.86,12.55-16.51,25.59-16.51,25.59,6.36-2.61,21.11-19.64,21.11-19.64-2.28,8.23-33.17,32.11-33.17,32.11,13.53-8,28.69-20.13,28.69-20.13C547.92,222.47,561,206.9,561,206.9c14.67-21.11,4.48-36.68,4.48-36.68A15.86,15.86,0,0,1,557.25,185.39Zm1.35,40.67c-2.61,2-19.15,8.88-19.15,8.88,2.61-.82,8.12,0,8.12,0,14,2.46,18.53-8.92,18.53-8.92,1.87-3.14,2.87-3.87,2.87-3.87-2.83.41-8.66-2-8.66-2-7.58-2.28-11.49,3-11.49,3a80.6,80.6,0,0,1-10.11,9.21A117,117,0,0,1,558.6,226.06Zm-15.39,19.48c-14.33-2.36-20.64,3.26-20.64,3.26,10.68-2.36,22.82,4.08,22.82,4.08,10.19,6.28,16.22-1.55,16.22-1.55,1.71-2.28,5.46-1.46,5.46-1.46C557.13,237.23,544.58,238,544.58,238c-15.24.08-27.3,11.25-27.3,11.25C535.94,239.59,543.22,245.54,543.22,245.54ZM570.06,87.12c4.67,9.29,1.58,48.71,1.58,48.71a31.07,31.07,0,0,1,13.28-20.66C572.86,128.27,573.29,137,573.29,137c4.78-11.29,20.49-18.49,20.49-18.49,11.63-3.65,9.2-17.1,9.2-17.1a6,6,0,0,1,2.43-4.6,42.7,42.7,0,0,0-22.92,7.29c.69-1.82,1-6.86,1-6.86.52-8.42-5.3-15.11-5.3-15.11-6.34-6.69-8.18-12.94-8.18-12.94m20.59,118.44s-9.51-24.5,6.9-46.61c0,0,10.94-14.19,3-21.64,0,0-1.27,3.09-6.42,5.23,0,0-28,6.46-10,50.95,0,0-3.18-18.93,3.59-29.3C587.74,146.3,579.31,169.6,590.65,187.67Zm43.17,145.75s48.23-19.05,25.8-76.68c0,0-14.23-29.42-37.14-52.09,0,0-31.83-29.9-15-62.7,0,0,6-12.78,16.64-7,0,0,7,4.9,2.62,9.73,0,0-5,5.17-9.66-.41,0,0,4.4,15.27,20.35,4.7,0,0,8.3-8.37,2.65-17.7,0,0-9.66-16.54-25.93-4.36,0,0-44.28,37.69,15.18,102.16,0,0,31.15,30.66,28.56,59A53.65,53.65,0,0,1,633.82,333.43ZM622,333.1c38.94-9.8,33.27-49.59,33.27-49.59A67.67,67.67,0,0,0,648.8,261c-7.75-16.77-34.1-43.6-41.19-54.55-22.48-34.73-11.41-55.77-11.41-55.77-16.22,38.2,25.08,81.27,25.08,81.27,10.61,12.12,17.78,23,22.35,32.73,0,0-7.39-9.58-25.13-12.07,0,0-43.41-7.71-47,36.57,0,0,.5,26.5,24.63,30.6,0,0,28.49,7.34,31.72-25.75,0,0-6,16.54-24.13,16.42,0,0-15.8-.12-23.51-16.54,0,0-7.34-19.65,9.21-32.22,0,0,23.88-21.4,52.25,6.47,0,0,15.18,14.68,5.72,40.18,0,0-3.61,9-9.7,14.31C637.65,322.6,629.89,330.28,622,333.1Zm12.35-129.81a38.42,38.42,0,0,1,2.36-17.79s2.72-13.36-5.56-18.62a23.79,23.79,0,0,1-9.59-9,35.61,35.61,0,0,1-4.31,11.4s-5.42,12,2.92,20c0,0,9.87,10.84,10.15,14l-5.7-31.69Zm13.9,22.41s-1.29-12.19,3.51-22.08c0,0,9-14.12,3.79-20.93,0,0-4.29-6.31-2.57-10,0,0-7.46,3.44-11.9,15.63,0,0-3.51,8.53,0,23.44,0,0,3.8,14.55,6.74,20.22,0,0-5.88-19.79-1.36-32.12C646.47,199.82,644.54,218.38,648.27,225.7Zm6.88-1.29c2.15-9.89,9-7.38,9-7.38,4.59.93,2.87,5.81,2.87,5.81-2.51,4.45-6.38,2.72-6.38,2.72,9.54,8,15.34-4.16,15.34-4.16,3.23-10.11-6.67-14.2-6.67-14.2-15.34-6.17-18.14,13.19-18.14,13.19a43.55,43.55,0,0,0,7.67,29.47C653.36,239.32,655.15,224.41,655.15,224.41Zm8.59,12s-8.58,5.77-.82,20.5c0,0,6.38,12.41,6,20.25a58.9,58.9,0,0,1-5.21,27.65s12.88-12.75,8.83-40.58c0,0,5.43,11-.86,30,0,0,15-22.31,7.93-40.4,0,0-2.82-6.89-9-10.17C670.6,243.67,663.36,239,663.74,236.43Zm-53.55,21.88s-29.3,0-27.37,29.66c0,0,3.86,23.24,28,16.86,0,0-21.82,2.31-24.6-18.43C586.19,286.4,582.79,263,610.19,258.31Zm26.65,10.25s-14-13.5-32.07-5.06c0,0-9.28,3.62-12.18,15.67,0,0-2.77,18,13.5,21.46,0,0-5.55-15.79,6.63-26,0,0,12.44-13.94,32.92,5.18,0,0-7.23-18.57-34.85-13.5C610.79,266.27,621.88,259.88,636.83,268.56Zm-1.63,22.55c-2.12-2.35.57-4.82.57-4.82,5.11-3.85,8.67,5.75,8.67,5.75,2,6.5.57,13.91.57,13.91,8.67-16.75-4.31-26.26-4.31-26.26-6.26-4.25-11.43,1.61-11.43,1.61C622.92,290,632,294.72,632,294.72c6.94,2.77,8.25-3,8.25-3C636.29,292.71,635.2,291.11,635.2,291.11ZM588.57,319c3.63,3.46,11.82,5.16,11.82,5.16,6.76,1.5,17.7-.58,17.7-.58-6.43,3.84-21.34,1.09-21.34,1.09,16.83,9.85,28.1,5.09,28.1,5.09,8-2.67,12.19-13.78,12.19-13.78.25-1.59,2.51-2.09,2.51-2.09-1.92-3.67-6.76-2.84-6.76-2.84-3.26-.17-14.95,7.18-14.95,7.18-11.86,6.51-25.38,1.92-25.38,1.92-3.07-1-3.89-1.16-3.89-1.16m22.22,19.42c-2.49-.44-7.63-4.53-7.63-4.53-2.93-3-9.69-7.2-9.69-7.2.71.27,9.16,8.71,9.16,8.71,1.42,1.42,9.16,6.31,9.16,6.31,10.22,5.69,22.49,6.22,22.49,6.22,20.54-.09,27.74-17.51,27.74-17.51-.53,2.13-7.38,5.07-7.38,5.07-3.64,1.69-11.91-.45-11.91-.45-5.07-2.49-13.51.54-13.51.54-4.61,2.12-12.09,1.16-12.09,1.16-5.42-.27-13-3.61-13-3.61C605.3,335.35,610.79,338.39,610.79,338.39Zm-40.34-32.45s-2.58,42.41,35.2,52.54a8.73,8.73,0,0,1-2.31-6.85s1.78-10.49-7.47-15.65a53.48,53.48,0,0,1-22.4-25.05s3.47,15.54,11.82,23.63C585.29,334.57,576.4,331.81,570.45,305.94Zm18.95,56.92c-9.39-6.09-11.14-19.38-11.14-19.38-.77,18.89,9.58,24.19,9.58,24.19,11.09,3.9,10.85,2.22,10.85,2.22-2-.49-2.9-3.89-2.9-3.89-.72-7.14-8.74-12.8-8.74-12.8-3.57-2.36-7.91-10.21-7.91-10.21C581.33,351.66,589.4,362.86,589.4,362.86Zm-10.49,4.06s.33,17.51,13,18.89c0,0,5.65-.27,6.59-6.75,0,0,0-4.28-3.29-5.54,0,0-7.13-3.29-7.8,3.62,0,0,2.75-3.9,4.72.66a2.75,2.75,0,0,1-2.91,3.24S583.36,382,578.91,366.93Zm-8.86,17.63c.92-7,6.82-16.66,6.82-16.66,4-9.11-1.5-22.64-1.5-22.64-1.37-2.54-4.62-15.09-4.62-15.09,3.06,22.9-.84,35.46-.7,35.66m4.39-195.59s-10.19,15.57,4.48,36.68c0,0,13.12,15.57,20.54,20.21,0,0,15.16,12.14,28.69,20.13,0,0-30.89-23.88-33.17-32.11,0,0,14.75,17,21.11,19.64,0,0-12.65-13-16.51-25.59,0,0-5.82-15.89-8.8-18.34a28.3,28.3,0,0,0-8.06-5.46A15.86,15.86,0,0,1,574.44,170.23Zm26.81,62.19a80.6,80.6,0,0,1-10.11-9.21s-3.91-5.3-11.49-3c0,0-5.83,2.36-8.66,2,0,0,1,.73,2.87,3.87,0,0,4.49,11.38,18.53,8.92,0,0,5.51-.82,8.12,0,0,0-16.55-6.93-19.15-8.88A117,117,0,0,1,601.26,232.41Zm21.44,16.87s-12.06-11.17-27.3-11.25c0,0-12.55-.81-22.49,11.82,0,0,3.75-.82,5.46,1.46,0,0,6,7.82,16.22,1.55,0,0,12.14-6.44,22.82-4.08,0,0-6.31-5.62-20.64-3.26C596.76,245.54,604,239.59,622.69,249.29Z"/></g><path class="cls-5" d="M498.72,292H484.64L520.47,186.5H536.9l36,105.46H558.34l-14.08-43.81-10.33-30.35c-2.35-6.88-3.91-13.14-5.48-19.25h-.31c-1.56,6.26-3.29,12.67-5.32,19.09l-10.33,30.51Z"/><path class="cls-2" d="M542.44,186.5h17.37l18,51c4.38,13,8,24.56,10.64,35.52h.47c2.66-10.64,6.41-22.22,11.11-35.52l18.78-51h17.37L642.74,292h-13.3l-2.66-46.31c-.78-14.71-1.72-32.39-1.56-45.53h-.47c-3.6,12.36-8,25.5-13.3,40.06l-18.62,51.16H582.5L565.44,241.1c-5-14.86-9.23-28.48-12.2-41h-.31Z"/><path class="cls-2" d="M645.79,190.24a4,4,0,1,1-4-3.92A3.94,3.94,0,0,1,645.79,190.24Zm-7,0a3,3,0,0,0,3.06,3.13,3,3,0,0,0,3-3.1,3,3,0,1,0-6,0Zm2.41,2.05h-.91v-3.92a7.87,7.87,0,0,1,1.5-.12,2.44,2.44,0,0,1,1.36.29,1.09,1.09,0,0,1,.38.86,1,1,0,0,1-.81.91v0a1.16,1.16,0,0,1,.72,1,3,3,0,0,0,.29,1h-1a3.35,3.35,0,0,1-.31-1c-.07-.43-.31-.62-.81-.62h-.43Zm0-2.22h.43c.5,0,.91-.17.91-.57s-.26-.6-.84-.6a2.21,2.21,0,0,0-.5,0Z"/></svg>